<svg id="Layer_1" data-name="Layer 1" xmlns="http://www.w3.org/2000/svg" viewBox="0 0 529.1 481.4"><defs><style>.cls-1{fill:#ed1c24;}.cls-2{fill:#fff;}</style></defs><path d="M125.4,253.1a30.5,30.5,0,0,1,5,7.3,6.9,6.9,0,0,1,.2,4.7c-.3.7-2.5.8-3.8.9-5.3.1-10.7.1-16.1,0l-30.3-.2a47.9,47.9,0,0,0-8.4.9c-1.8.3-2.6,1.5-2.2,3.5s77.1,121.4,77.3,122.3c1,4.4-3.7,17.3-6,20.5-.2.3-23.2-37-23.9-38.1-.8,1.1-2.2,2.2-2.3,3.4-.5,6.8-1.2,13.5-4.1,19.8-3.8,8.5-8.9,15.5-17.3,19.8-5.1,2.6-5.2,4.9-.9,8.8a78.8,78.8,0,0,0,18.5,12.4c4.9,2.5,10.1,4.2,15.1,6.4a55.7,55.7,0,0,1,7.1,4c2.5,1.6,3.6,1.3,3.9-1.7s.3-7.4.5-11a6.3,6.3,0,0,1,.5-3.1c3-6.1,5.6-12.6,10.5-17.6a10.4,10.4,0,0,0,3-7.4c.2-2.6-.1-5.3.2-7.9a75.1,75.1,0,0,1,1.9-8.2c.5-1.9,1-3.8,1.6-5.7a57.1,57.1,0,0,1,21.8-31.5c5.3-3.9,11.4-6.9,17.2-10.2,1.7-1,2.1-2.3,2.6-4.2s2.6-6.3,4.3-9.3,4.3-7,6.4-10.6a3.2,3.2,0,0,0,.5-1.9c-.3-1.3-.5-3-1.3-3.6s-2.6,0-3.5.7c-3.7,2.9-7.1,5.9-10.6,9s-8.6,4.1-12.6,1.9a9,9,0,0,1-4-4.2c-2.1-5.1-5.7-8.8-9.4-12.6a11.8,11.8,0,0,1-1.7-2.2c-1.7-3.3-4.5-4.3-8-4.4s-5.3-1.3-5.6-5.2-.3-8-.8-11.9-3-8.4-5.9-12-6.1-8.8-7.1-14.2c-.6-3.5-1.7-6.3-5-8.6-8.1-5.8-9-14.2-3.5-23.4,6.6-11,14.6-20.7,25.4-27.7,4.2-2.7,8.9-4.4,13.5-6.3a51.3,51.3,0,0,1,7.8-2.7,42.7,42.7,0,0,1,26.6,1.7,44.5,44.5,0,0,1,20.1,15.3,53.7,53.7,0,0,1,10.9,27.8,87,87,0,0,0,4.2,21.6c4,11.3,10.8,20.8,21.7,26.6,4.9,2.6,9.6,5.4,14.6,7.4,6.7,2.7,13.5,4.7,20.3,7,2.8.9,5.4,2.5,8.2,3,8.4,1.3,16.2,5.3,24.9,5.1,1.3-.1,3.1,1.3,3.8,2.6s-.9,2.5-2.1,3.6a97,97,0,0,0-10,10.3c-2.6,3.1-4.4,6.8-6.4,10.3s-4.9,9.3-7.3,14c-.4.9-.6,2-1,2.9s-1.8,4.5-2.8,6.7-1.2,2.2-1.5,3.3c-1.6,5.3-3.1,10.7-4.6,16-.4,1.4-.5,3-.9,4.4-.8,3.4-1.8,6.7-2.6,10.1s-1.3,7.2-2.2,10.8a53,53,0,0,1-3,9.3c-.9,2-1.4,3.7-.5,5.8a10.2,10.2,0,0,1,.3,3.9c-.6,6.5-1.2,13-2.1,19.4-.6,4.5-1.7,8.9-2.6,13.3-.5,2.6-1.1,5.2-1.8,7.7-4.6,14.9-4.8,30.2-4.8,45.5-.1,10.7-.5,21.3-.3,32,.2,14.6,1,29.1,1.5,43.6.1,1.9.2,3.8-2.1,4.3s-3.2-1-4.1-2.6c-2.6-4.7-5.3-9.3-8-13.9s-4.3-7.4-6.5-11L248.3,548l-5.7-9.4-15.9-26.3c-5.6-9-11.3-17.9-16.9-26.8-3.4-5.4-6.8-10.8-10.1-16.3-2.1-3.4-3.5-7-2.7-11.3s.1-6.2-.1-9.3c-.1-1-1-1.9-1.5-2.8s-2.1,1.1-2.5,2a30.5,30.5,0,0,0-2.4,7.2c-1,6.3-4.4,11.4-7.6,16.5a143.9,143.9,0,0,1-10.8,15.6c-5.6,6.6-11.7,12.9-17.9,18.9-4.5,4.4-12.1,3.8-17.9-.2a88.4,88.4,0,0,0-11.9-7,73.5,73.5,0,0,1-25.9-19.7c-3-3.6-6.3-7-9.1-10.9-4.3-6.1-8.3-12.5-12.4-18.8L64.9,430.7c-.9-1.5-1.3-3.4-2.4-4.8s-3.2-4.3-5.3-5.6c-6.1-3.7-11.8-7.7-16.2-13.4a35.3,35.3,0,0,1-7.5-17.4c-2.2-17.4,3.9-31,18.6-40.5,10.2-6.6,21.1-8.7,33.1-4.6,7.5,2.5,13.5,6.9,19.4,11.8,1.1.9,1.6,2.5,2.7,3.6s-59.8-94.6-62-98.4c-.8-1.4-1.9-2.7-2.6-4.1s-1.3-2.6-1-3.7,2.1-1.8,3.3-1.8C57.2,251.7,123.7,251.6,125.4,253.1ZM74.8,407.7c2-.3,5.6.1,8.1-1.4,5.5-3.3,11.5-6.7,12.5-14.2.1-.6.8-1.1,1-1.7,2.2-4.7,3.8-9.5.1-14.3a4.5,4.5,0,0,1-.8-2.3C94.2,367.2,89,364,84,360.7a5.4,5.4,0,0,0-2.2-.4c-2-.3-4-.2-5.9-.8-5.4-1.9-10.5.2-14.9,2.4s-7.3,4.3-8.5,9a7.6,7.6,0,0,1-1.5,2.6c-3.9,5.5-3.1,11.6-1.4,17.2,1.3,3.9,4.3,7.5,7.3,10.6a26.6,26.6,0,0,0,9.3,5.6C68.4,407.8,71.2,407.4,74.8,407.7Zm112.5,20c-.9.4-1.6.5-1.7.8a2.7,2.7,0,0,0,.2,1.8c1.6,1.8,3.2,3.5,4.9,5.1a1.7,1.7,0,0,0,1.9.4c.5-.3,1-1.6.8-1.8C191.4,431.8,189.3,429.7,187.3,427.7Zm71.1-14c2,2.6,6,2.8,8.9.6Z" transform="translate(-33.1 -186.7)"/><path d="M441.4,433.3a24.2,24.2,0,0,1-1.2,4.2c-2.1,3.4-4.4,6.6-6.5,10s-4.6,7.5-7,11.2-4.1,6.8-6.2,10.1-5.3,8.7-8,13L405,493.7l-4.8,8-11.9,19.9-5.8,8.7c-2.1,3.2-4.2,6.4-6.2,9.7-6.5,10.4-12.9,20.9-19.3,31.3s-10.6,17.8-16,26.7l-10.3,16.5c-4.4,7.1-8.7,14.4-13.1,21.5s-8,12.3-11.9,18.5c-2.2,3.4-4.1,7-6.3,10.4-.8,1.3-2.1,2.9-3.4,3.2s-2.6-1.6-3.4-2.8c-6.7-10.6-13.3-21.2-19.9-31.9-4.7-7.6-9.3-15.3-14-22.8s-11.2-17.5-16.6-26.3-10.4-17.4-15.7-26.1c-2.3-3.7-4.8-7.2-7.2-10.9l-5.6-9.4L197,510.7c-4.7-7.7-9.5-15.2-14.3-22.8-1.1-1.6-1-3,.1-4.7,2.3-3.4,4.3-7.1,6.5-10.6.7-1.1,1.7-2.7,2.8-2.8s2.4,1.2,3.1,2.3c3.4,5.3,6.5,10.8,9.9,16.1,5.3,8.7,10.9,17.2,16.2,25.8,4,6.4,7.7,13,11.7,19.3s7.9,12.4,11.8,18.6c2.4,3.8,4.5,7.6,6.8,11.4s3.9,6.4,5.9,9.6,5.3,8.7,8,12.9,5.4,8,8,12,3.5,5.6,5.2,8.4c4.4,7.1,8.9,14.2,13.3,21.4.7,1.1.9,2.5,1.6,3.6s1.6,1.7,2.4,1.7,1.7-1,2.2-1.8c5.7-9.2,11.4-18.5,17-27.9,2-3.3,3.9-6.8,5.9-10.2l8.4-13.4,7.1-11.8c3.8-6.1,7.6-12.2,11.3-18.3,2.1-3.2,4.1-6.5,6.1-9.7l13.6-21.9c2.5-4.1,4.7-8.3,7.1-12.5,1.3-2.2,2.9-4.3,4.4-6.5,4-6.4,8.1-12.7,12-19.1,2.3-3.8,4.4-7.8,6.6-11.6l5.8-9c1.8-2.8,3.7-5.6,5.5-8.5,4.2-7.1,8.3-14.2,12.5-21.2l5.4-9.1a4.5,4.5,0,0,1,5.5-1.9c1.2.4,2.3,1.9,3,3.1a66.1,66.1,0,0,1,3.6,7C439.9,430.2,440.7,431.8,441.4,433.3Z" transform="translate(-33.1 -186.7)"/><path d="M290.1,268.3c-11.7,0-23.4-.1-35.1,0-5.7,0-7-.6-9.2-5.8-.5-1.1-1.4-2.1-1.8-3.2s-1.6-4.3-1.6-6.4,1.6-3.9,4.3-3.9c11.3.2,22.6,0,34,0h35.4c2,0,4,.2,6,0,5.8-.5,9.9,3.2,9.5,9a10.8,10.8,0,0,1-10.3,10.3Z" transform="translate(-33.1 -186.7)"/><path class="cls-1" d="M524.3,265.7a25.9,25.9,0,0,0,5.4,1.1c3.1,0,5.9.4,8.3,2.8s2.9,1.2,4.4,1.2c3.7.2,6.6,1.4,8.5,4.7a10.9,10.9,0,0,0,2.3,2.5c1.3,1.7,3.1,3.2,3.8,5.1a120.1,120.1,0,0,1,4.8,15.1c1.3,5.9-.7,11.6-2.7,17.1a29.2,29.2,0,0,0-1.4,3.1c-1.8,7-7.7,10-13,13.8s-9.9,4-15,5.4c-2.6.6-3.7,1.7-3.7,4.9-.2,5.5-1.6,10.9-2.2,16.5s-1.5,14-2.2,21.1c-1.3,12.2-2.3,24.4-4,36.5-.8,5.3-3,10.5-4.6,15.7s-3,9.3-4.6,13.9c-.3,1-1.1,1.9-1.5,3s-1.6,3.9-2.4,5.8a6.5,6.5,0,0,1-.7,2.1c-2.9,3.7-8.9,4.9-13.4,3.5-6.9-2.1-12.5-6.5-18.4-10.3l-.9-.6c-8.3-4.3-14.8-10.7-20.8-17.8s-9.5-14-13.4-21.6c-1.5-2.7-2.4-5.6-4-8.3a68.5,68.5,0,0,0-5-7,1.2,1.2,0,0,1-.4-.8c-.8-5.5-4.3-6.2-9.2-6-8.6.3-17.2.8-25.7-1.2-5.3-1.3-10.9-2-15.8-4.3-6.7-3.1-11-8.6-11.1-16.6,0-6.4-.4-12.8.3-19.2.5-4.1,2.6-7.9,4-11.9s2.1-5.7,2.9-8.6c1.3-4.6,4.7-7.8,7.7-11.3a2.8,2.8,0,0,1,.9-.7c7.4-2.7,14.6-6.1,22.8-5.5a10.7,10.7,0,0,1,4.8,2,43.8,43.8,0,0,0,21.5,9.3,12.3,12.3,0,0,1,3.3.8,52,52,0,0,1,18.4,18c2.2,3.4,2.8,7.9,4.1,11.9.3.8.3,1.7.6,2.4,2.9,6.3,5.7,12.6,9.9,18.2a114.6,114.6,0,0,1,9.3,14.8c1.9,3.8,2.9,8.1,4.2,12.2.5,1.7.7,4.1,2.8,4a6.2,6.2,0,0,0,3.9-3.2c1.5-3.4,3.3-6.5,6.4-8.8.6-.5.8-1.6,1.3-2.4s1.6-3.2,2.8-4.3c4.4-3.7,6.4-8.8,7.6-14.2s2.3-10.3,3.2-15.6a32.2,32.2,0,0,0-.1-6.2,28,28,0,0,1-.1-5c.3-2.8,1.6-3.2,4.3-2.4a14.3,14.3,0,0,0,5.5.5c.5,0,1.2-.8,1.4-1.4s-.6-1.2-1.1-1.4a12.4,12.4,0,0,0-3.8-.9,5.7,5.7,0,0,1-5.4-2.9,19.2,19.2,0,0,0-1.8-2.2c-1.5-1.4-2.3-.8-3.2.8-2.8,5-5.7,9.9-8.6,14.8s-5.1,8.2-7.6,12.3-3.9,6.9-6,10.2a4.9,4.9,0,0,1-8.4-.4c-1.2-2.2-2.6-4.4-4-6.5-2.5-3.9-2.4-6.9.2-10.8s5.3-8.6,7.9-12.9,4.4-7.5,6.8-11.1,5.4-7.6,7.7-11.7a5.6,5.6,0,0,0-.4-4.7,16.3,16.3,0,0,1-2.4-9.4,38.9,38.9,0,0,1,7.1-23.1c1.3-1.8,3.9-2.7,5.7-4.3a5,5,0,0,0,1.8-3.2,4.1,4.1,0,0,0-1.8-3.2,11.7,11.7,0,0,0-5-.8H464a4.2,4.2,0,0,1-4.5-3.2c-.8-2.5-1.4-5.1.6-7.5s3-5.5,4.4-7.4,87.8-1.1,88.7,0-3.5,9.8-4.7,12S535,263,532.9,263s-5.6.8-8.5,1.3Zm-.2,9.8-.3-.9-7.1,3.2c-.7.3-1.3.9-2,1-7.1,1.7-9,8.4-12.7,13.3-1.8,10.6-3,21.1,7.3,28.4,3.3,2.4,6.8,5.1,10.7,6.2,9.3,2.7,16.8-2.4,24-7.6a1.5,1.5,0,0,0,.5-.6c2.3-4,5.1-7.6,6-12.4s-.4-6.7-.3-10c.1-5.6-3-8.9-6.7-12.1a25.3,25.3,0,0,0-4.5-3.4C534.4,278,530.1,274.3,524.1,275.5Zm-24.6,47.7a13.1,13.1,0,0,0-.1,1.7c.4,1.3.9,2.6,1.3,3.8a7,7,0,0,0,1.3-.5c-.3-1.5-.7-3-1.1-4.5S500.3,323.5,499.5,323.2Z" transform="translate(-33.1 -186.7)"/><path class="cls-1" d="M339.1,312.2c-.3,2-.6,4-1,6s-1.4,5.5-1.8,8.3a56.5,56.5,0,0,0-.4,5.8,8.6,8.6,0,0,1-.1,2.8c-2.9,6.6-2.2,13.8-2.9,20.7-.6,5.4-.2,10.9-.3,16.4a13.8,13.8,0,0,1-.6,5c-2.4,6.4-1,12.6.3,18.9.7,3.8.2,7.9,0,11.8a47.7,47.7,0,0,1-1.5,9.2c-1.8,5.4-3.7,10.8-6,16-3.3,7.5-7.1,14.8-10.4,22.3-.7,1.5-.2,3.5-.3,5.3s-.3,5.2-.7,7.8-1.1,4.8-1.3,7.2c-.8,9-4,17.3-7.6,25.4a6.5,6.5,0,0,1-.4,1.3c-2.7,7.3-5.6,14.6-8.2,22a19.3,19.3,0,0,0-1,6.3c0,1.1,1.1,2.1,1.8,3.2,1-.7,2.4-1.2,2.9-2.2s2.3-5.4,3.6-8c2.4-4.7,4.8-9.4,7.5-13.8a214.4,214.4,0,0,1,12.2-18.7,106,106,0,0,1,12.3-12.8c3.5-3.2,4.1-4.6,3.1-9.4a8.3,8.3,0,0,1,.4-4.9,71.8,71.8,0,0,0,3.4-28.7c-.1-1.5-.3-3-.3-4.6.2-4.3,1.4-5.5,5.7-6.8,9.1-2.7,18.2-2,27.1.2,5.6,1.4,10.9,3.9,16.4,5.3s10.9,2,16.4,3c.9.2,2.4.5,2.6,1.1a3.7,3.7,0,0,1-.7,3c-2.7,4.6-5.4,9.2-8.3,13.7s-5.1,7.7-7.7,11.6a2.8,2.8,0,0,0-.8,1.1c-.4,3-2.4,5-4,7.3-4,6.1-7.6,12.4-11.5,18.6-2.4,3.8-5,7.5-7.3,11.4s-4.7,8-7.1,12-4.6,7.3-6.9,11l-4.2,7-9.7,15.2c-.6.9-1,2-1.6,3s-1.9,3.4-2.9,5-1.7,2.7-2.6,4.1l-2.3,3.3c-.5.6-1.3,1.1-1.4,1.8-1.6,5.5-5.5,9.5-8.7,14.1s-4.1,7.5-6.1,11.4a5.1,5.1,0,0,1-.7,1.5c-3.2,4.7-6.5,9.3-9.6,14.2s-4.9,8.6-7.4,12.9c-.6.9-1.4,2-2.3,2.2s-1.8-.9-2.3-1.7c-3.9-6-7.8-12-11.4-18.1-.8-1.3-.8-3.1-.9-4.6-.2-6.2-.3-12.4-.5-18.6-.4-11.7-1-23.4-1.1-35.1-.1-13.8.4-27.6.5-41.4a110.3,110.3,0,0,1,3.7-26.8,42.9,42.9,0,0,0,.9-7.3c.3-3.7.7-7.1,2.8-10.5s2-10.4,2.2-15.7a150.2,150.2,0,0,1,2-20.2c1-5.9,3-11.5,2.8-17.6a11.2,11.2,0,0,1,2.8-8.6c1-1.2,1.2-3.3,1.4-5.1a55.6,55.6,0,0,0,.2-7.1,9.9,9.9,0,0,1,2.9-7.4c1-.9,1.3-2.6,1.5-4.1.6-3.6,1.3-7.1,3.3-10.4s1.5-5,1.8-7.6.6-2.9,2.2-3.9a6.3,6.3,0,0,0,2.3-3.6c.4-2.3.9-4.5,3.1-5.7a2,2,0,0,0,.8-.8c1.9-3.2,3.5-6.6,5.7-9.6a110.6,110.6,0,0,1,7.7-9,12.1,12.1,0,0,1,1.6-1.6l6.1-5.3Zm5.2,157.2-1.3-.9c-.5,1-1.1,1.9-1.5,2.9s.7.6,1.1.9A27.5,27.5,0,0,0,344.3,469.4Z" transform="translate(-33.1 -186.7)"/><path class="cls-1" d="M461.4,232.5a29.2,29.2,0,0,1-2.1,12.4,33.1,33.1,0,0,1-4.9,8.6c-1.4,1.9-1.8,4.7-1.9,7.2-.2,4.2.3,8.5.4,12.7s-1,4.7-4.1,5.5-5.5,2.5-6.2,6a4.1,4.1,0,0,1-2,2.9c-4.9,2.4-7,7.2-9.6,11.5s-5.1,5.8-10.3,2.8a34.9,34.9,0,0,0-4.4-2c-2.6-1.2-4.7-1-6.8,1.3s-4.4,2.1-6.8.9c-8.4-4.1-17-2.4-24.2,1.5-5.5,3-11.2,4.9-16.8,7.3-2.2.9-4.3.9-6.1-1.3s-2.3-4.8.5-7.5c7.5-7.3,14.2-15.1,18.6-24.7a22.7,22.7,0,0,0,1.5-13.6c-2.2-12.6-2.3-25.4-2-38.1a18.4,18.4,0,0,1,3.9-11,10.7,10.7,0,0,0,2.1-5.6,4.6,4.6,0,0,0-2.2-3.8,4.8,4.8,0,0,0-4.3.8,26.9,26.9,0,0,0-8.1,13c-2,7.7-.9,15.4-.3,23.1s1.6,15.8,2.4,23.6a5.3,5.3,0,0,1-.5,2.5,107.4,107.4,0,0,1-6.4,12.1c-3.2,4.9-8.4,6.9-13.8,8.2-7,1.7-14.1.6-21.1-.5a2.6,2.6,0,0,1-1.5-.7c-2.3-2.5-4.6-5-6.7-7.6s-.9-3.1,1.2-3.8a7.3,7.3,0,0,1,2.4-.7c5,0,8.6-3,12.5-5.5a8.7,8.7,0,0,0,3.9-8.3q-.6-8.8-1.5-17.7c-1-10.7-2.4-21.3.9-31.8a96.1,96.1,0,0,1,4-9.5,4.3,4.3,0,0,1,.4-.7c.1-4.9,3.7-7,7.2-9.3,5.7-3.7,11.4-7.3,18.7-5.6,3.7.8,7.7,1.4,11.1,3.1,5.5,2.8,11,2.1,16.6,1.6,8-.6,16-1.3,24-1.4a34.7,34.7,0,0,1,12.8,2c12.3,4.5,22.1,12.2,27.1,24.6,1.9,4.8,2.2,10.3,3.2,15.4Z" transform="translate(-33.1 -186.7)"/><path class="cls-1" d="M354.6,359.3c0,3.7.1,7.3,0,11a12.4,12.4,0,0,1-1.1,4.3c-1.5,3-5.4,3.2-6.8.3s-1.7-5.5-2.3-8.4c-1.3-5.9.7-11.4,2.5-16.7.5-1.2,3.2-2.1,5-2.2s2.3,1.8,2.3,3.5v8.2Z" transform="translate(-33.1 -186.7)"/><path class="cls-1" d="M337.5,441.4c-.1,2-.1,3.5-.3,5s-2.6,3.2-4.6,1.6-3.3-10.6,0-13.4c1.7-1.5,3.7-1,4.2,1.4A40.1,40.1,0,0,1,337.5,441.4Z" transform="translate(-33.1 -186.7)"/><path class="cls-2" d="M74.8,407.7c-3.6-.3-6.4.1-8.6-.8a26.6,26.6,0,0,1-9.3-5.6c-3-3.1-6-6.7-7.3-10.6-1.7-5.6-2.5-11.7,1.4-17.2a7.6,7.6,0,0,0,1.5-2.6c1.2-4.7,5.1-7.3,8.5-9s9.5-4.3,14.9-2.4c1.9.6,3.9.5,5.9.8a5.4,5.4,0,0,1,2.2.4c5,3.3,10.2,6.5,11.7,13.1a4.5,4.5,0,0,0,.8,2.3c3.7,4.8,2.1,9.6-.1,14.3-.2.6-.9,1.1-1,1.7-1,7.5-7,10.9-12.5,14.2C80.4,407.8,76.8,407.4,74.8,407.7Zm-22.5-24A14.6,14.6,0,0,0,56,394.3c4.4,5.1,8.9,9.6,16.1,9.6,5,0,10.3.5,13.7-4.6.5-.7,1.5-.9,2.1-1.5l2.8-3a35.1,35.1,0,0,1,2.7-4c2.1-2.5,3.1-11.7,1.1-14.2s-5-6.9-8.2-9.5-8-5.8-13.1-5.5c-2.5.2-5,1.4-7.4,2.3C58.6,366.5,52.4,375.1,52.3,383.7Z" transform="translate(-33.1 -186.7)"/><path class="cls-2" d="M187.3,427.7c2,2,4.1,4.1,6.1,6.3.2.2-.3,1.5-.8,1.8a1.7,1.7,0,0,1-1.9-.4c-1.7-1.6-3.3-3.3-4.9-5.1a2.7,2.7,0,0,1-.2-1.8C185.7,428.2,186.4,428.1,187.3,427.7Z" transform="translate(-33.1 -186.7)"/><path class="cls-2" d="M258.4,413.7l8.9.6C264.4,416.5,260.4,416.3,258.4,413.7Z" transform="translate(-33.1 -186.7)"/><path class="cls-2" d="M524.1,275.5c6-1.2,10.3,2.5,14.9,5.1a25.3,25.3,0,0,1,4.5,3.4c3.7,3.2,6.8,6.5,6.7,12.1-.1,3.3,1,6.5.3,10s-3.7,8.4-6,12.4a1.5,1.5,0,0,1-.5.6c-7.2,5.2-14.7,10.3-24,7.6-3.9-1.1-7.4-3.8-10.7-6.2-10.3-7.3-9.1-17.8-7.3-28.4,3.7-4.9,5.6-11.6,12.7-13.3.7-.1,1.3-.7,2-1l7.1-3.2Zm-16.6,26.1A17.6,17.6,0,0,0,525,319.4c4.3.1,8.9-.2,12.4-3.7,5.1-4.9,6.3-7.5,6.1-17.5-.2-7.5-8.5-14.4-16.6-14.8A18.2,18.2,0,0,0,507.5,301.6Z" transform="translate(-33.1 -186.7)"/><path class="cls-2" d="M499.5,323.2c.8.3,1.3.3,1.4.5s.8,3,1.1,4.5a7,7,0,0,1-1.3.5c-.4-1.2-.9-2.5-1.3-3.8A13.1,13.1,0,0,1,499.5,323.2Z" transform="translate(-33.1 -186.7)"/><path class="cls-2" d="M344.3,469.4a27.5,27.5,0,0,1-1.7,2.9c-.4-.3-1.1-.7-1.1-.9s1-1.9,1.5-2.9Z" transform="translate(-33.1 -186.7)"/><path d="M52.3,383.7c.1-8.6,6.3-17.2,13.5-19.8,2.4-.9,4.9-2.1,7.4-2.3,5.1-.3,9.5,2.3,13.1,5.5s5.6,6.2,8.2,9.5,1,11.7-1.1,14.2a35.1,35.1,0,0,0-2.7,4l-2.8,3c-.6.6-1.6.8-2.1,1.5-3.4,5.1-8.7,4.6-13.7,4.6-7.2,0-11.7-4.5-16.1-9.6A14.6,14.6,0,0,1,52.3,383.7Zm26.8-.7c0-2.4-3.2-5.4-5.7-5.3s-5.5,2.7-5.5,5.2a5.6,5.6,0,0,0,11.2.1Z" transform="translate(-33.1 -186.7)"/><path class="cls-1" d="M507.5,301.6a18.2,18.2,0,0,1,19.4-18.2c8.1.4,16.4,7.3,16.6,14.8.2,10-1,12.6-6.1,17.5-3.5,3.5-8.1,3.8-12.4,3.7A17.6,17.6,0,0,1,507.5,301.6Zm24.4.5c0-5.3-2.2-8-6.5-8.1-2.7,0-6.8,5-6.4,8.4s1.8,6.3,6.3,6S531.9,306.8,531.9,302.1Z" transform="translate(-33.1 -186.7)"/><path class="cls-2" d="M79.1,383a5.6,5.6,0,0,1-11.2-.1c0-2.5,2.8-5.1,5.5-5.2S79.1,380.6,79.1,383Z" transform="translate(-33.1 -186.7)"/><path class="cls-2" d="M531.9,302.1c0,4.7-1.6,6.1-6.6,6.3s-5.9-2.7-6.3-6,3.7-8.4,6.4-8.4C529.7,294.1,531.9,296.8,531.9,302.1Z" transform="translate(-33.1 -186.7)"/></svg>