<svg id="Layer_1" data-name="Layer 1" xmlns="http://www.w3.org/2000/svg" viewBox="0 0 327 175"><defs><style>.cls-1,.cls-3{fill:#f4b91a;}.cls-2{fill:#6d6e71;}.cls-3{font-size:43.15px;font-family:ComicSansMS-Bold, Comic Sans MS;font-weight:700;}</style></defs><path class="cls-1" d="M362.7,388.2a8,8,0,0,0-8,8h0a18.1,18.1,0,0,0-17.3,18,17.8,17.8,0,0,0,1.1,6.1h-1.1a18.3,18.3,0,0,0-13.4,6,18.1,18.1,0,0,0-35.1,6,15,15,0,0,0,.2,2.2l-11.6-.6v-.2a8,8,0,0,0-16-.6h0c-12.5-.6-22.1-.8-25.7-.3-15.7,2-16.2,11.2-16.2,11.2s5.5-7.1,20-7.1c7.9,0,83.5,3.3,114.1,4.6a34.4,34.4,0,0,1,3.7-39.3,30.5,30.5,0,0,1,4.8-4.7,32.1,32.1,0,0,1,7.8-4.6A8,8,0,0,0,362.7,388.2Zm-45.4,48.1-25.1-1.6v-1a12.7,12.7,0,1,1,25.4,0A11.5,11.5,0,0,1,317.3,436.3Z" transform="translate(-124.6 -340.4)"/><path class="cls-1" d="M351.4,395.1a2.3,2.3,0,1,0,0-4.5,2.2,2.2,0,0,0-2.2,2.2A2.2,2.2,0,0,0,351.4,395.1Z" transform="translate(-124.6 -340.4)"/><circle class="cls-1" cx="202.2" cy="76.2" r="3.7"/><path class="cls-1" d="M416.7,409.1a10,10,0,0,0-13.8-13.2,34.7,34.7,0,0,1,11.6,13.3l.9,1.9a36,36,0,0,1,2,6.6,4.6,4.6,0,0,0,3-4.2A4.5,4.5,0,0,0,416.7,409.1Z" transform="translate(-124.6 -340.4)"/><circle class="cls-1" cx="277.4" cy="51.5" r="1.9"/><path class="cls-1" d="M189.7,379.1a14.3,14.3,0,0,0-10,4,18,18,0,0,0-27.2,3.4,14.4,14.4,0,0,0-11.9,26.1,17.9,17.9,0,0,0-.9,5.7,19.1,19.1,0,0,0,16.2,18.9,33.4,33.4,0,0,1-2.5-12.7,35.6,35.6,0,0,1,2.6-13.1,31.7,31.7,0,0,1,2.3-4.5,14.5,14.5,0,1,1,22.2-16,30.6,30.6,0,0,1,7.4-.9,34.1,34.1,0,0,1,16.5,4.3v-.5A14.7,14.7,0,0,0,189.7,379.1Z" transform="translate(-124.6 -340.4)"/><path class="cls-1" d="M213.6,397.5a7.7,7.7,0,0,0-3.4.7,33.5,33.5,0,0,1,8.9,11.8,7.2,7.2,0,0,0,2-5A7.5,7.5,0,0,0,213.6,397.5Z" transform="translate(-124.6 -340.4)"/><path class="cls-1" d="M131.5,409.6a6.9,6.9,0,1,0,6.8,6.8A6.9,6.9,0,0,0,131.5,409.6Z" transform="translate(-124.6 -340.4)"/><path class="cls-1" d="M213.6,390.4a2.8,2.8,0,0,0-5.5,0,2.8,2.8,0,1,0,5.5,0Z" transform="translate(-124.6 -340.4)"/><circle class="cls-1" cx="32.8" cy="54.1" r="2.7"/><path class="cls-2" d="M418,385.6c-6.4-1.6-20.1-3.5-33.3-5.3s-27.2-3.7-30.8-5.1-10.2-6.8-17.2-12.5-13-10.7-16.7-12.4c-7.4-3.5-66.5-13.7-84.9-8.5-13.7,3.8-26.6,18.2-31.6,24.2l-.4.6h-.8c-23.3-4.2-41.8-5.1-54.9-2.5-6.8,1.3-11.7,4.4-14.6,9.1s-3.4,11.6-3,16.1c2.4-6.3,8.5-15.4,23.7-17.5,26-3.5,77,3.9,104.9,8.6-11.3-3.4-26.6-7.7-42.7-11.2l-2-.4,1.2-1.6c4.6-6.8,13.9-18.3,24.1-19.7a54.4,54.4,0,0,1,7.6-.4h4.5a5.8,5.8,0,0,1,5.3,3.9,271,271,0,0,1,7.8,30.2l32.2,7.6s-23-7.5-25.8-9.4-4.8-12.6-9.9-28a2.8,2.8,0,0,1,2.8-3.6c16.8,1.4,36.3,4.3,45.1,6.7s19.5,11.6,28.1,19.1c5.1,4.4,9.5,8.3,11.9,9.2s12.5,1.6,23.7,2.3c13.7.8,30.7,1.7,42.9,4.2a74.1,74.1,0,0,1,21,7.6C430.5,391.9,423.8,387,418,385.6Z" transform="translate(-124.6 -340.4)"/><path class="cls-2" d="M352.7,376.9s-10.3,3.1-14.3.2-5.6-4.1-7.4-4.5c-4.6-.9-14,2.7-14.9,4.2s6.2,6.1,8.7,6.4,12.7-.6,13.2-.4a80.9,80.9,0,0,1,14.7.8Z" transform="translate(-124.6 -340.4)"/><path class="cls-2" d="M187.9,392.8a31.7,31.7,0,1,0,31.7,31.7A31.7,31.7,0,0,0,187.9,392.8Zm0,49.9a18.2,18.2,0,1,1,18.2-18.2A18.2,18.2,0,0,1,187.9,442.7Zm0-39.4a21.2,21.2,0,0,0-6.2,41.5,23.1,23.1,0,1,1,26.5-26.5A21.1,21.1,0,0,0,187.9,403.3Z" transform="translate(-124.6 -340.4)"/><path class="cls-2" d="M383.6,392.8a31.7,31.7,0,1,0,31.7,31.7A31.6,31.6,0,0,0,383.6,392.8Zm0,49.9a18.2,18.2,0,1,1,18.2-18.2A18.2,18.2,0,0,1,383.6,442.7Zm0-39.4a21.2,21.2,0,0,0-6.2,41.5,23.1,23.1,0,1,1,26.5-26.5A21.1,21.1,0,0,0,383.6,403.3Z" transform="translate(-124.6 -340.4)"/><path class="cls-2" d="M445.1,445.1c-9.9-.3-24.9-1-32.8-1.4a39.7,39.7,0,0,0,2-3.5l.3-.6a33.4,33.4,0,0,0,3.3-11.8,41.6,41.6,0,0,1,.6,12c8.8.4,20.6.6,22.4-1s2.7-19.8,2.7-19.8C446.1,426.9,447,445.2,445.1,445.1Z" transform="translate(-124.6 -340.4)"/><path class="cls-2" d="M129.6,425.9s-.5,8.3,3.1,10.4,20.5,2.4,20.5,2.4a83.7,83.7,0,0,1-18.2-5.5C130.5,431.1,129.6,425.9,129.6,425.9Z" transform="translate(-124.6 -340.4)"/><polyline class="cls-2" points="259 115.8 17.2 115.8 259 111.3"/><text class="cls-3" transform="translate(8.1 161.9)">Elite Car Wash</text></svg>